<svg width="375" height="20" viewBox="0 0 375 20" fill="none" xmlns="http://www.w3.org/2000/svg">
<rect width="375" height="20" fill="white"/>
<path d="M26.4824 14.1992C28.2812 14.1992 29.6172 13.1973 29.8984 11.6504V11.6387H28.832L28.8203 11.6504C28.5566 12.623 27.6602 13.2266 26.4824 13.2266C24.8535 13.2266 23.834 11.8965 23.834 9.78125V9.76953C23.834 7.6543 24.8535 6.31836 26.4766 6.31836C27.6426 6.31836 28.5449 7.00391 28.8262 8.08789L28.832 8.09961H29.8926L29.8984 8.08789C29.6465 6.46484 28.2578 5.3457 26.4766 5.3457C24.1797 5.3457 22.75 7.04492 22.75 9.76953V9.78125C22.75 12.5 24.1855 14.1992 26.4824 14.1992ZM34.1172 14.1113C35.6055 14.1113 36.5078 13.2676 36.7246 12.4121L36.7363 12.3652H35.7168L35.6934 12.418C35.5234 12.7988 34.9961 13.2031 34.1406 13.2031C33.0156 13.2031 32.2949 12.4414 32.2656 11.1348H36.8125V10.7363C36.8125 8.84961 35.7695 7.57227 34.0527 7.57227C32.3359 7.57227 31.2227 8.9082 31.2227 10.8594V10.8652C31.2227 12.8457 32.3125 14.1113 34.1172 14.1113ZM34.0469 8.48047C34.9785 8.48047 35.6699 9.07227 35.7754 10.3203H32.2832C32.3945 9.11914 33.1094 8.48047 34.0469 8.48047ZM38.4531 14H39.4727V5.17578H38.4531V14ZM41.4883 14H42.5078V5.17578H41.4883V14ZM46.5801 14.1113C47.5059 14.1113 48.1445 13.7305 48.4551 13.0566H48.5488V14H49.5684V7.68359H48.5488V11.4219C48.5488 12.5293 47.957 13.209 46.8438 13.209C45.8359 13.209 45.4258 12.6641 45.4258 11.5273V7.68359H44.4062V11.7734C44.4062 13.2676 45.1445 14.1113 46.5801 14.1113ZM51.5312 14H52.5508V5.17578H51.5312V14ZM56.2422 14.1113C57.0918 14.1113 57.7539 13.7422 58.1523 13.0684H58.2461V14H59.2656V9.67578C59.2656 8.36328 58.4043 7.57227 56.8633 7.57227C55.5156 7.57227 54.5547 8.24023 54.3906 9.23047L54.3848 9.26562H55.4043L55.4102 9.24805C55.5742 8.75586 56.0723 8.47461 56.8281 8.47461C57.7715 8.47461 58.2461 8.89648 58.2461 9.67578V10.25L56.4355 10.3613C54.9648 10.4492 54.1328 11.0996 54.1328 12.2246V12.2363C54.1328 13.3848 55.041 14.1113 56.2422 14.1113ZM55.1758 12.2129V12.2012C55.1758 11.5742 55.5977 11.2344 56.5586 11.1758L58.2461 11.0703V11.6445C58.2461 12.5469 57.4902 13.2266 56.4531 13.2266C55.7207 13.2266 55.1758 12.8516 55.1758 12.2129ZM61.1289 14H62.1484V10.0859C62.1484 9.16016 62.8398 8.54492 63.8125 8.54492C64.0352 8.54492 64.2285 8.56836 64.4395 8.60352V7.61328C64.3398 7.5957 64.123 7.57227 63.9297 7.57227C63.0742 7.57227 62.4824 7.95898 62.2422 8.62109H62.1484V7.68359H61.1289V14Z" fill="black"/>
<path fill-rule="evenodd" clip-rule="evenodd" d="M73.4876 6C76.0506 6 78.363 7.03944 80 8.70688L78.9119 9.76404C77.5539 8.36553 75.626 7.49223 73.4876 7.49223C71.3629 7.49223 69.4461 8.35432 68.0896 9.73709L67 8.68164C68.6355 7.02896 70.9375 6 73.4876 6ZM77.8235 10.8214C76.7448 9.69175 75.2014 8.98446 73.4876 8.98446C71.7883 8.98446 70.2566 9.67976 69.1793 10.7927L70.2693 11.8486C71.0672 11.0054 72.2136 10.4767 73.4876 10.4767C74.7769 10.4767 75.9356 11.0182 76.7346 11.8793L77.8235 10.8214ZM75.6444 12.9385C75.1264 12.3454 74.3524 11.9689 73.4876 11.9689C72.639 11.9689 71.8779 12.3314 71.3602 12.9053L73.5225 15L75.6444 12.9385Z" fill="#030303"/>
<path fill-rule="evenodd" clip-rule="evenodd" d="M17.9138 5C17.6377 5 17.4138 5.22386 17.4138 5.5V14.5C17.4138 14.7761 17.6377 15 17.9138 15H19.5C19.7761 15 20 14.7761 20 14.5V5.5C20 5.22386 19.7761 5 19.5 5H17.9138ZM13.7759 7.63158C13.4997 7.63158 13.2759 7.85544 13.2759 8.13158V14.5C13.2759 14.7761 13.4997 15 13.7759 15H15.3621C15.6382 15 15.8621 14.7761 15.8621 14.5V8.13158C15.8621 7.85544 15.6382 7.63158 15.3621 7.63158H13.7759ZM9.13793 10.2368C9.13793 9.9607 9.36179 9.73684 9.63793 9.73684H11.2241C11.5003 9.73684 11.7241 9.9607 11.7241 10.2368V14.5C11.7241 14.7761 11.5003 15 11.2241 15H9.63793C9.36179 15 9.13793 14.7761 9.13793 14.5V10.2368ZM5.5 11.8421C5.22386 11.8421 5 12.066 5 12.3421V14.5C5 14.7761 5.22386 15 5.5 15H7.08621C7.36235 15 7.58621 14.7761 7.58621 14.5V12.3421C7.58621 12.066 7.36235 11.8421 7.08621 11.8421H5.5Z" fill="black"/>
<path d="M315.168 14.5H316.223V6.04492H315.174L312.924 7.66211V8.77539L315.074 7.2168H315.168V14.5ZM321.59 14.6992C323.488 14.6992 324.578 13.0938 324.578 10.2871C324.578 7.48633 323.471 5.8457 321.59 5.8457C319.697 5.8457 318.59 7.48047 318.59 10.2695C318.59 13.082 319.686 14.6992 321.59 14.6992ZM321.59 13.7793C320.342 13.7793 319.65 12.5312 319.65 10.2695C319.65 8.03711 320.354 6.77148 321.59 6.77148C322.826 6.77148 323.518 8.02539 323.518 10.2695C323.518 12.5371 322.838 13.7793 321.59 13.7793ZM329.148 14.6992C331.047 14.6992 332.137 13.0938 332.137 10.2871C332.137 7.48633 331.029 5.8457 329.148 5.8457C327.256 5.8457 326.148 7.48047 326.148 10.2695C326.148 13.082 327.244 14.6992 329.148 14.6992ZM329.148 13.7793C327.9 13.7793 327.209 12.5312 327.209 10.2695C327.209 8.03711 327.912 6.77148 329.148 6.77148C330.385 6.77148 331.076 8.02539 331.076 10.2695C331.076 12.5371 330.396 13.7793 329.148 13.7793ZM335.137 9.87109C336.279 9.87109 336.971 9.12695 336.971 7.87891C336.971 6.64844 336.273 5.89258 335.137 5.89258C334 5.89258 333.297 6.64844 333.297 7.87891C333.297 9.12109 333.988 9.87109 335.137 9.87109ZM335.518 14.5L341.359 6.04492H340.404L334.562 14.5H335.518ZM335.137 9.10352C334.545 9.10352 334.205 8.6582 334.205 7.88477C334.205 7.11719 334.545 6.66602 335.137 6.66602C335.723 6.66602 336.062 7.11719 336.062 7.88477C336.062 8.65234 335.729 9.10352 335.137 9.10352ZM340.791 14.582C341.934 14.582 342.625 13.8379 342.625 12.5898C342.625 11.3594 341.928 10.6035 340.791 10.6035C339.654 10.6035 338.951 11.3594 338.951 12.5898C338.951 13.832 339.648 14.582 340.791 14.582ZM340.791 13.8145C340.199 13.8145 339.865 13.3691 339.865 12.5957C339.865 11.8281 340.199 11.377 340.791 11.377C341.383 11.377 341.717 11.8281 341.717 12.5957C341.717 13.3633 341.383 13.8145 340.791 13.8145Z" fill="#030303"/>
<path opacity="0.4" d="M346.5 7.5C346.5 6.39543 347.395 5.5 348.5 5.5H365.5C366.605 5.5 367.5 6.39543 367.5 7.5V13C367.5 14.1046 366.605 15 365.5 15H364.469H348.5C347.395 15 346.5 14.1046 346.5 13V7.5Z" stroke="black"/>
<path fill-rule="evenodd" clip-rule="evenodd" d="M369 12.374C369.863 12.152 370.5 11.3689 370.5 10.437C370.5 9.50507 369.863 8.72202 369 8.5V12.374Z" fill="black" fill-opacity="0.5"/>
<rect x="348" y="7" width="18" height="6.5" rx="1" fill="black"/>
<path fill-rule="evenodd" clip-rule="evenodd" d="M305.5 3V8.501L302.5 6.0005L302 6.5L305.5 9.5005V9.9995L302.5 13.0005L303 13.5005L305.5 11V16.5005L309.5 12.5L307.001 9.9995L309.5 7L305.5 3ZM306.501 5.5L308.033 7.0005L306.501 8.501V5.5ZM307.964 12.5002L306.501 11V14.0005L307.964 12.5002Z" fill="black"/>
</svg>
